<svg width="40" height="40" viewBox="0 0 40 40" fill="none" xmlns="http://www.w3.org/2000/svg">
  <defs>
    <linearGradient id="fg" x1="0" y1="0" x2="40" y2="44" gradientUnits="userSpaceOnUse">
      <stop offset="0%" stop-color="#a5b4fc" />
      <stop offset="50%" stop-color="#818cf8" />
      <stop offset="100%" stop-color="#6366f1" />
    </linearGradient>
  </defs>
  <path d="M4 8a4 4 0 014-4h20a4 4 0 014 4v8.27a4 4 0 00-2.5 3.73 4 4 0 002.5 3.73V32a4 4 0 01-4 4H8a4 4 0 01-4-4V23.73A4 4 0 006.5 20 4 4 0 004 16.27V8z" fill="url(#fg)" />
  <line x1="8" y1="20" x2="32" y2="20" stroke="white" stroke-opacity="0.2" stroke-width="1" stroke-dasharray="2 2.5" />
  <rect x="10" y="12" width="16" height="4" rx="1" fill="white" fill-opacity="0.92" />
  <rect x="15.5" y="12" width="5" height="16" rx="1" fill="white" fill-opacity="0.92" />
</svg>
